<mxfile host="app.diagrams.net" modified="2023-07-24T07:41:25.975Z" agent="Mozilla/5.0 (Macintosh; Intel Mac OS X 10_15_7) AppleWebKit/537.36 (KHTML, like Gecko) Chrome/114.0.0.0 Safari/537.36" version="21.6.5" etag="0_401u84nn04LwTyz82k" type="github">
  <diagram name="第 1 页" id="Wlc3cWirUaBo6eCYiLzQ">
    <mxGraphModel>
      <root>
        <mxCell id="0" />
        <mxCell id="1" parent="0" />
      </root>
    </mxGraphModel>
  </diagram>
</mxfile>
